<svg xmlns="http://www.w3.org/2000/svg" id="Calque_1" x="0" y="0" version="1.1" viewBox="0 0 168.5 43.5" xml:space="preserve">
  <style>
    .st1{fill:#fff}.st2{fill:#565450}.st3{fill:#3a8fc9}
  </style>
  <path fill="#ff9100" d="M93.2 29.7V7c0-4.4 2.1-7 6.8-7h62c3.7 0 6.5 2.8 6.5 6.9V29c0 3-1.8 7-5.5 7h-4.1l-6.9 7.4v-7.6H99.3c-2.8.1-6.1-2.3-6.1-6.1z"/>
  <path d="M123.6 31.4c2.7 0 4.6-.5 5.7-1.5 1.1-1 1.6-2.6 1.6-5V9.4h-3.8v15.9c0 1.2-.2 2.1-.7 2.5-.4.4-1.3.6-2.6.6-1.1 0-1.9-.2-2.5-.7l-.2-.2s-.1 0-.1-.1c-.5-.5-.8-1.3-.8-2.4V9.4h-3.8v15.9c0 2.1.4 3.6 1.3 4.6l.2.2c1.2.9 3 1.3 5.7 1.3z" class="st1"/>
  <path d="M8 31.4c2.3 0 4-.5 5-1.4 1.1-.9 1.6-2.5 1.6-4.7V4.9h-3.7v4.9H4.4C1.5 9.8 0 11.3 0 14.3c0 .5 0 1.1.1 1.7l1.6 11c.2 1.4.6 2.4 1.2 3.2.1.1.2.1.2.2 1 .7 2.6 1 4.9 1zM4.2 13.7c.2-.4.8-.6 1.7-.6l4.6.2.4.3v11.8c0 2-.9 3-2.6 3h-.5c-.6 0-1.1-.2-1.5-.7-.5-.4-.9-1.2-1-2.3l-1.5-9.6c.1-1 .2-1.7.4-2.1zM26.3 31.4c2.5 0 4.3-.5 5.4-1.4 1.2-1 1.8-2.7 1.8-5v-9.9c0-2.1-.4-3.6-1.3-4.6l-.1-.1c-1.1-1-3-1.5-5.6-1.5-2.5 0-4.3.5-5.5 1.5-1.2 1-1.7 2.7-1.7 5v10c0 2 .5 3.5 1.4 4.5.1 0 .1.1.2.2 1.1.9 2.9 1.3 5.4 1.3zM23 15.1c0-2.2 1.1-3.3 3.3-3.3 1.1 0 1.9.2 2.5.7l.2.2c.1 0 .1.1.2.1.5.5.8 1.3.8 2.5v9.8c0 1.2-.3 2-1 2.5-.5.4-1.3.6-2.3.6-1.2 0-2.1-.3-2.6-1-.6-.5-1-1.3-1-2.5v-9.6z" class="st2"/>
  <path d="M53.5 9.4h-3.7l-2.4 18.4h-1.3c-1 0-1.7-.2-2.1-.5l-.2-.2c-.1 0-.1-.1-.2-.1-.4-.3-.5-1-.5-1.9L42 9.4h-3.7l1.6 16.9c.1 1.7.5 3 1.1 3.7.8.7 2 1 3.8 1h1.8l.4.4-1 7.1h3.6l3.9-29.1zM63.4 31.4c2.5 0 4.3-.5 5.4-1.4 1.2-1 1.8-2.7 1.8-5v-9.9c0-2.1-.4-3.6-1.3-4.6l-.1-.1c-1.1-1-3-1.5-5.6-1.5-2.5 0-4.3.5-5.5 1.5-1.2 1-1.7 2.7-1.7 5v10c0 2 .5 3.5 1.4 4.5.1 0 .1.1.2.2 1.1.9 2.9 1.3 5.4 1.3zm-3.3-16.3c0-2.2 1.1-3.3 3.3-3.3 1.1 0 1.9.2 2.5.7l.2.2c.1 0 .1.1.2.1.5.5.8 1.3.8 2.5v9.8c0 1.2-.3 2-1 2.5-.5.4-1.3.6-2.3.6-1.2 0-2.1-.3-2.6-1-.6-.5-1-1.3-1-2.5v-9.6zM82.5 31.4c2.7 0 4.6-.5 5.7-1.5 1.1-1 1.6-2.6 1.6-5V9.4H86v15.9c0 1.2-.2 2.1-.7 2.5-.4.4-1.3.6-2.6.6-1.1 0-1.9-.2-2.5-.7-.1-.1-.2-.2-.2-.3l-.1-.1c-.5-.5-.8-1.3-.8-2.4V9.4h-3.7v15.9c0 2.1.4 3.6 1.3 4.6l.1.1c1.2 1 3 1.4 5.7 1.4z" class="st3"/>
  <path d="M109.1 30.6c.9-.7 1.5-1.9 1.8-3.8l1.6-11.8c.1-.5.1-.9.1-1.3 0-1.3-.3-2.2-.9-3-.8-.7-2-1-3.5-1l-6.1.3-.4-.4V5.1H98v20.4c0 2.1.4 3.7 1.3 4.7 1 .9 2.8 1.3 5.3 1.3 2.1.1 3.6-.3 4.5-.9zm-6.7-3.1c-.5-.5-.7-1.2-.7-2.2V13l4.2-.3c1 0 1.6.2 2 .4l.3.3s.1 0 .1.1c.4.3.6.8.6 1.4 0 .3 0 .7-.1 1.2l-1.4 9.8c-.1.9-.4 1.6-.8 2-.4.4-1 .6-1.8.6s-1.5-.2-1.9-.7l-.2-.2c-.2 0-.3 0-.3-.1zM147.5 12.6v-1.4c0-.5-.1-1-.4-1.3-.4-.3-1-.5-1.8-.5h-10.6v3.2h8l.4.4-9.1 14.8.1 1.3c0 .7.1 1.3.4 1.7.3.2.6.3 1.1.3h11.9v-3.2h-8.8l-.4-.4 9.2-14.9zM163.7 12.6v-1.4c0-.5-.1-1-.4-1.3-.4-.3-1-.5-1.8-.5h-10.6v3.2h8l.4.4-9.1 14.8.1 1.3c0 .7.1 1.3.4 1.7.3.2.6.3 1.1.3h11.9v-3.2h-8.8l-.4-.4 9.2-14.9z" class="st1"/>
</svg>
