<?xml version="1.0" standalone="no"?>
<!DOCTYPE svg PUBLIC "-//W3C//DTD SVG 20010904//EN"
 "http://www.w3.org/TR/2001/REC-SVG-20010904/DTD/svg10.dtd">
<svg version="1.0" xmlns="http://www.w3.org/2000/svg"
 width="400.000000pt" height="400.000000pt" viewBox="0 0 400.000000 400.000000"
 preserveAspectRatio="xMidYMid meet">
<metadata>
Created by potrace 1.11, written by Peter Selinger 2001-2013
</metadata>
<g transform="translate(0.000000,400.000000) scale(0.100000,-0.100000)"
fill="#000000" stroke="none">
<path d="M0 2434 c0 -861 3 -1564 8 -1562 47 21 177 106 193 126 19 25 20 35
14 119 -4 59 -3 104 4 126 14 43 64 72 151 88 l65 12 -8 135 c-6 95 -5 138 3
146 8 8 9 -5 5 -49 -3 -41 -2 -55 5 -45 6 10 8 3 3 -24 -4 -28 -3 -37 6 -32 8
5 8 0 -1 -20 -10 -22 -10 -28 0 -32 6 -2 12 -14 12 -28 0 -18 4 -22 17 -17 12
5 15 2 10 -10 -3 -8 0 -21 8 -27 10 -8 14 -8 17 2 8 22 -4 58 -18 58 -10 0
-11 6 -5 23 4 12 4 60 -1 107 -15 144 -17 150 -47 168 -29 18 -135 128 -164
171 -61 88 -101 190 -128 326 -33 161 -37 217 -14 209 8 -4 15 -16 16 -28 1
-11 12 13 26 54 13 41 27 78 31 82 12 12 62 -41 62 -65 0 -12 -9 -28 -19 -34
-27 -17 -35 -65 -18 -105 8 -18 17 -41 20 -50 4 -9 24 -26 47 -38 22 -11 40
-25 40 -30 0 -6 5 -10 11 -10 15 0 38 -30 39 -50 0 -14 33 -50 45 -50 9 0 5
39 -5 45 -15 9 -12 91 5 132 8 20 13 38 10 41 -3 3 1 12 8 20 7 10 8 13 1 9
-11 -7 -28 32 -19 42 3 2 5 -1 5 -7 0 -7 5 -12 10 -12 11 0 14 50 3 50 -5 0
-16 12 -27 26 -18 26 -18 26 3 19 12 -4 21 -2 21 4 0 6 -4 11 -10 11 -5 0 -10
6 -10 14 0 8 -7 16 -15 20 -8 3 -15 13 -15 21 0 9 -5 13 -10 10 -6 -3 -10 2
-10 13 0 20 -92 113 -123 125 -31 12 -62 -3 -79 -36 -30 -62 -39 -90 -45 -148
-3 -33 -10 -56 -15 -53 -34 21 67 312 109 315 10 1 32 1 49 0 29 -2 32 1 43
41 6 24 13 70 15 103 5 72 47 341 62 388 3 12 26 63 50 113 56 116 138 202
247 258 114 59 176 115 130 117 -10 0 -13 3 -6 5 8 4 6 12 -8 27 -42 48 -49
57 -49 66 0 12 -45 62 -51 57 -2 -2 -5 14 -6 36 -3 50 -5 53 -33 36 -18 -10
-24 -10 -27 0 -4 9 -78 12 -324 12 l-319 0 0 -1566z m417 -786 c-3 -7 -5 -2
-5 12 0 14 2 19 5 13 2 -7 2 -19 0 -25z"/>
<path d="M720 3990 c0 -5 9 -10 20 -10 11 0 20 5 20 10 0 6 -9 10 -20 10 -11
0 -20 -4 -20 -10z"/>
<path d="M800 3985 c0 -11 11 -15 40 -15 22 0 40 4 40 9 0 6 19 12 43 14 23 2
5 4 -40 5 -68 2 -83 -1 -83 -13z"/>
<path d="M1100 3991 c0 -6 -15 -12 -32 -14 -29 -3 -28 -4 9 -5 34 -2 41 1 37
13 -7 17 -14 20 -14 6z"/>
<path d="M1218 3993 c12 -2 30 -2 40 0 9 3 -1 5 -23 4 -22 0 -30 -2 -17 -4z"/>
<path d="M3282 3983 c2 -10 10 -17 17 -15 7 1 10 -1 7 -6 -5 -9 28 -42 43 -42
5 0 11 -6 14 -13 2 -7 28 -18 55 -26 45 -11 54 -11 74 3 38 27 108 12 108 -23
0 -6 3 -11 8 -11 16 0 8 -51 -12 -72 -38 -39 -84 -77 -89 -72 -2 2 -25 -4 -51
-15 -40 -18 -46 -24 -46 -50 0 -40 46 -89 83 -89 15 0 27 4 27 9 0 5 9 9 20 9
11 0 20 -5 20 -10 0 -6 3 -9 8 -8 4 1 34 -2 67 -6 43 -5 93 -1 178 14 66 11
134 20 153 20 l34 0 0 210 0 210 -361 0 c-338 0 -360 -1 -357 -17z"/>
<path d="M1453 3963 c9 -2 25 -2 35 0 9 3 1 5 -18 5 -19 0 -27 -2 -17 -5z"/>
<path d="M3972 3430 c-28 -23 -54 -83 -48 -113 2 -12 10 -47 17 -79 9 -43 9
-67 1 -101 -8 -32 -9 -61 -1 -101 10 -54 9 -57 -24 -109 -19 -29 -48 -64 -64
-78 -62 -52 -63 -90 -6 -150 l35 -37 -16 -58 c-8 -33 -18 -69 -22 -81 -4 -16
2 -29 26 -52 20 -18 33 -41 33 -58 1 -16 15 -42 35 -63 39 -42 38 -67 -3 -90
-17 -10 -46 -31 -65 -49 -19 -17 -52 -37 -74 -43 -28 -9 -48 -26 -77 -65 -42
-56 -69 -69 -122 -58 -17 3 -51 9 -74 12 -39 4 -44 3 -54 -21 -15 -33 -4 -46
43 -53 53 -8 66 -6 90 16 27 26 33 26 69 1 15 -12 52 -25 81 -30 50 -8 115
-28 165 -52 11 -6 26 -7 32 -3 7 4 19 1 27 -6 8 -6 17 -10 19 -7 3 3 4 352 3
776 l-3 770 -23 -18z"/>
<path d="M2465 3270 c-3 -5 -1 -10 4 -10 6 0 11 5 11 10 0 6 -2 10 -4 10 -3 0
-8 -4 -11 -10z"/>
<path d="M2482 3200 c0 -46 2 -50 8 -25 l8 30 1 -27 c0 -15 6 -30 11 -33 6 -3
10 -11 10 -17 0 -6 -7 -5 -16 3 -15 12 -16 11 -11 -6 9 -28 12 -129 4 -141 -3
-6 -2 -16 2 -23 6 -9 11 -10 15 -2 4 6 16 16 27 21 16 9 19 7 19 -10 0 -11 -6
-20 -14 -20 -17 0 -28 -38 -12 -43 15 -5 14 -99 -1 -115 -7 -7 -13 -22 -13
-32 0 -19 -36 -47 -47 -37 -2 3 0 15 7 26 7 14 7 21 0 21 -5 0 -10 -5 -10 -12
0 -9 -3 -9 -12 0 -9 9 -19 4 -45 -24 -18 -20 -33 -40 -33 -45 0 -5 -4 -9 -10
-9 -5 0 -7 7 -3 16 11 30 -42 4 -94 -45 -13 -12 -16 -12 -23 0 -7 11 -10 10
-16 -4 -3 -9 -14 -17 -24 -17 -10 0 -23 -7 -30 -15 -16 -19 -30 -3 -30 34 0
23 -1 23 -18 8 -10 -10 -22 -14 -26 -10 -4 4 -4 0 0 -10 4 -11 1 -17 -7 -17
-11 -1 -11 -3 1 -13 16 -13 45 -85 37 -94 -3 -2 -8 5 -12 16 -3 12 -10 21 -15
21 -5 0 -7 6 -4 14 3 8 -3 16 -15 19 -24 6 -27 -3 -8 -22 10 -11 7 -13 -15 -9
-15 3 -25 1 -22 -3 3 -5 0 -9 -5 -9 -7 0 -12 40 -13 108 -1 59 -3 88 -5 64 -4
-38 -6 -42 -20 -30 -14 11 -15 10 -9 -10 5 -13 3 -22 -3 -22 -6 0 -10 -3 -9
-7 2 -13 -13 -43 -22 -43 -9 0 -1 40 12 56 12 17 -1 44 -22 44 -16 0 -34 -32
-31 -53 1 -5 -3 -6 -9 -2 -5 3 -22 -3 -37 -14 -43 -30 -73 -36 -73 -14 0 15
-2 16 -10 3 -5 -8 -10 -12 -10 -8 0 4 -11 3 -24 -2 -14 -5 -26 -5 -28 0 -3 10
-104 -11 -134 -28 -10 -6 -19 -19 -19 -28 0 -21 -42 -35 -68 -22 -12 6 -16 5
-15 -4 2 -7 -14 -16 -39 -21 -24 -6 -43 -14 -43 -18 0 -5 -9 -9 -20 -9 -11 0
-20 -4 -20 -9 0 -4 -12 -8 -27 -8 -33 -1 -103 -25 -103 -35 0 -17 -36 -6 -62
19 -15 14 -31 23 -35 19 -5 -4 7 -20 24 -35 40 -34 42 -44 6 -30 -16 6 -40 12
-55 14 -15 2 -42 14 -60 26 -29 20 -31 21 -18 4 21 -28 30 -34 71 -45 20 -6
42 -17 49 -25 11 -13 8 -15 -16 -15 -16 -1 -40 -7 -54 -15 l-25 -15 30 7 c35
9 59 9 140 -1 110 -13 129 -17 116 -25 -8 -5 -1 -11 21 -15 23 -5 29 -9 20
-15 -10 -6 -8 -10 10 -15 22 -7 22 -8 3 -15 -16 -7 -13 -9 20 -15 22 -4 52
-14 68 -23 21 -10 50 -13 106 -10 42 2 86 1 99 -4 17 -7 21 -6 16 4 -6 8 -3 8
9 -1 24 -20 71 -6 131 39 28 21 54 39 57 39 4 0 28 43 54 95 46 92 49 95 82
95 18 0 49 7 68 14 19 8 35 11 35 5 0 -5 -7 -9 -16 -9 -8 0 -12 -5 -9 -10 4
-6 10 -8 15 -5 12 7 19 -6 29 -57 5 -24 23 -79 40 -123 17 -44 38 -106 46
-137 20 -70 60 -104 141 -119 50 -9 57 -8 70 8 8 11 13 13 14 5 0 -9 4 -10 19
0 15 9 24 7 50 -11 17 -12 28 -27 25 -33 -4 -6 -3 -8 3 -5 5 3 21 -5 36 -17
24 -21 27 -29 23 -75 -2 -29 -7 -56 -12 -61 -12 -11 -144 -28 -144 -19 0 4 6
10 13 13 6 3 -1 3 -16 -1 -15 -3 -27 -1 -26 3 4 23 -3 35 -18 32 -12 -2 -17 4
-18 22 0 15 -7 26 -20 30 -29 7 -65 33 -65 45 0 6 -6 19 -13 29 -12 17 -14 15
-15 -15 -1 -72 -8 -102 -22 -109 -8 -4 -25 -12 -37 -18 -13 -7 -36 -12 -53
-12 -16 0 -30 -5 -30 -11 0 -8 -4 -9 -13 0 -8 6 -16 8 -19 5 -3 -3 -22 6 -42
20 -33 22 -44 24 -104 19 -73 -6 -95 -13 -41 -13 19 0 41 -5 49 -10 10 -6 -3
-7 -40 -3 -30 3 -56 9 -58 13 -2 5 -12 6 -22 3 -11 -3 -20 -1 -20 5 0 5 -17
10 -37 10 -61 0 -69 22 -49 129 6 32 -9 38 -48 19 -19 -9 -42 -17 -52 -19 -11
-2 -44 -16 -74 -30 -30 -15 -60 -27 -67 -27 -7 0 -16 -6 -20 -14 -4 -7 -18
-18 -30 -25 -19 -9 -22 -9 -17 3 3 8 1 17 -5 21 -6 3 -11 1 -11 -5 0 -6 -13
-16 -30 -21 -16 -6 -28 -14 -25 -19 2 -4 -14 -10 -37 -13 -23 -3 -48 -14 -55
-23 -12 -17 -13 -17 -13 1 0 16 -2 17 -17 3 -22 -19 -54 -32 -70 -29 -7 1 -13
-2 -13 -6 0 -4 -22 -21 -49 -38 -27 -16 -53 -41 -59 -55 l-11 -25 5 25 c3 17
-1 29 -15 37 -16 10 -19 9 -17 -4 2 -9 -4 -29 -11 -45 -8 -15 -12 -32 -8 -38
3 -6 0 -7 -9 -4 -19 7 -21 25 -5 41 7 7 7 13 1 17 -6 3 -18 -8 -26 -25 -20
-39 -20 -43 -1 -35 24 9 39 -30 22 -55 -17 -23 -11 -59 8 -59 7 0 15 -6 18
-12 2 -7 8 3 13 22 l9 35 6 -50 c6 -49 6 -48 7 19 3 97 18 136 54 136 24 0 27
-2 16 -14 -9 -10 -15 -11 -20 -2 -6 8 -8 8 -8 -1 0 -7 8 -17 18 -22 16 -10 16
-12 -1 -25 -10 -8 -19 -25 -20 -38 0 -12 -6 -26 -12 -30 -15 -12 12 -26 40
-20 20 3 23 1 18 -19 -5 -19 -3 -21 16 -16 16 4 21 2 17 -8 -2 -7 2 -16 10
-19 8 -3 14 -12 14 -20 0 -9 8 -30 17 -48 20 -38 23 -74 5 -70 -7 1 -12 -5
-12 -13 0 -8 3 -14 8 -14 20 3 31 -2 26 -14 -2 -7 7 -19 21 -27 14 -7 23 -16
20 -19 -8 -7 66 -40 92 -41 38 0 103 73 103 117 1 25 33 61 61 68 30 7 309
-93 364 -131 11 -8 27 -14 36 -14 9 0 23 -10 32 -23 14 -22 13 -23 -19 -33
-23 -8 -32 -8 -31 0 1 6 -4 10 -12 8 -8 -2 -17 2 -21 8 -4 6 -31 14 -61 16
-30 3 -70 10 -89 15 -59 15 -64 10 -24 -26 37 -33 35 -46 -4 -26 -30 15 -86
31 -90 26 -3 -3 3 -14 12 -24 17 -19 17 -19 -6 -14 -20 6 -19 3 11 -25 18 -18
36 -32 39 -32 3 0 13 -7 22 -15 9 -8 55 -22 101 -31 183 -33 222 -53 244 -127
14 -47 14 -48 -10 -59 -14 -6 -27 -18 -30 -27 -6 -19 -99 -28 -110 -11 -5 8
-11 8 -21 -1 -11 -9 -21 -9 -43 1 -17 7 -36 8 -43 4 -9 -6 -4 -11 17 -15 18
-4 -2 -7 -51 -6 -82 0 -109 -7 -99 -24 10 -16 -5 -10 -27 11 -12 10 -25 17
-29 14 -9 -5 -50 15 -61 31 -4 5 -10 2 -14 -8 -8 -23 -25 -21 -54 5 l-23 22 5
-22 c4 -12 2 -22 -3 -22 -5 0 -9 11 -9 25 0 17 -5 25 -18 25 -9 0 -28 14 -42
30 -14 17 -31 30 -39 30 -8 0 -11 3 -8 6 6 6 -35 44 -47 44 -11 0 -65 59 -92
100 -15 22 -30 37 -35 34 -14 -8 -11 -23 12 -54 24 -32 20 -60 -9 -60 -10 0
-24 -6 -31 -12 -11 -11 -13 -10 -8 5 4 11 3 16 -3 12 -5 -3 -19 -1 -31 5 -16
9 -19 18 -15 36 5 18 2 24 -10 24 -10 0 -14 -5 -10 -15 7 -20 1 -19 -24 2 -24
21 -26 33 -5 33 36 0 -1 49 -37 50 -29 0 -21 -18 10 -23 26 -4 26 -4 5 -12
-13 -4 -23 -14 -23 -21 0 -8 -10 -19 -22 -24 -13 -5 -17 -9 -10 -9 6 -1 12
-11 12 -23 1 -21 2 -22 14 -5 19 24 25 21 21 -10 -3 -27 20 -81 40 -95 12 -9
6 -14 -38 -33 -21 -9 -37 -11 -37 -5 0 5 -6 10 -14 10 -7 0 -23 14 -36 30 -21
28 -28 30 -87 30 -53 0 -70 4 -97 25 -18 14 -40 25 -49 25 -8 0 -26 15 -38 33
-13 17 -29 36 -36 40 -7 5 -11 13 -7 18 7 12 -15 41 -26 34 -10 -6 4 -51 46
-150 17 -39 20 -49 23 -71 1 -14 99 -164 126 -194 13 -14 54 -79 92 -145 67
-116 89 -160 168 -330 41 -88 107 -192 154 -242 l30 -33 630 0 c569 0 631 2
639 16 8 15 10 15 15 0 4 -10 18 -16 38 -16 32 0 32 0 26 43 -5 35 -53 194
-75 247 -3 8 -6 20 -7 25 -1 11 -24 90 -56 198 -12 38 -19 77 -16 88 3 10 2
19 -3 19 -4 0 -22 30 -40 67 -18 36 -36 71 -41 77 -72 87 -91 118 -79 129 10
9 14 9 17 -1 8 -22 88 -115 137 -159 25 -23 46 -49 46 -57 0 -8 23 -45 50 -82
28 -36 67 -98 87 -138 27 -54 63 -99 148 -188 63 -64 138 -150 169 -191 50
-68 58 -75 90 -75 l35 0 -26 41 c-14 23 -45 71 -68 107 -24 36 -50 88 -59 115
-25 77 -68 155 -103 189 -18 17 -33 34 -33 38 0 14 65 8 86 -7 12 -8 24 -11
28 -8 3 3 6 1 6 -6 0 -7 5 -9 11 -5 8 5 6 10 -5 16 -22 12 -20 57 4 88 11 14
20 30 20 36 0 6 32 17 70 24 39 7 70 17 70 22 0 4 9 8 19 8 14 0 20 9 23 35 4
38 1 41 -81 79 -23 11 -31 21 -27 32 3 8 6 28 6 43 0 16 11 45 25 65 20 29 23
41 15 57 -6 10 -19 19 -29 19 -10 0 -24 7 -31 15 -7 8 -20 15 -29 15 -9 0 -22
5 -28 11 -6 6 -26 11 -45 11 -28 0 -38 6 -52 29 -15 25 -38 35 -69 30 -4 -1
-7 6 -5 16 2 12 -9 20 -39 29 -39 12 -43 11 -49 -8 -4 -15 -11 -18 -31 -13
-13 3 -22 2 -19 -3 2 -4 1 -13 -3 -20 -5 -8 -13 -8 -33 2 -15 8 -41 17 -58 21
-30 7 -31 9 -26 40 8 42 34 95 47 95 5 0 9 15 8 33 -3 36 17 81 32 72 5 -4 9
0 9 8 0 19 42 16 125 -6 61 -18 107 -22 70 -8 -17 7 -17 8 8 15 25 6 53 46 49
69 -1 4 3 7 9 7 5 0 8 4 4 9 -3 5 -1 12 4 15 12 8 25 128 17 161 -4 14 -13 25
-21 25 -9 0 -20 10 -25 23 -13 32 -55 77 -72 77 -8 0 -29 7 -47 16 -24 12 -30
20 -26 35 20 63 9 249 -22 374 -4 17 -8 98 -8 180 -2 183 -2 186 -17 183 -7
-2 -12 11 -14 29 -1 18 -4 39 -7 47 -3 8 -1 16 5 18 17 6 14 211 -4 313 -18
96 -59 234 -83 275 -14 24 -14 23 -13 -30z m78 -546 c0 -17 -6 -28 -20 -31
-11 -3 -20 -9 -20 -14 0 -5 -4 -9 -10 -9 -5 0 -10 11 -10 24 0 21 17 38 58 55
1 1 2 -11 2 -25z m-193 -15 c-5 -17 -2 -20 13 -16 11 3 24 -1 31 -9 6 -8 16
-14 21 -14 5 0 21 -9 35 -20 14 -11 32 -20 39 -20 17 0 74 -58 74 -76 0 -7 6
-15 13 -18 8 -3 6 -9 -8 -21 -18 -14 -20 -14 -27 2 -6 17 -7 17 -7 1 -1 -10
-5 -18 -11 -18 -5 0 -7 7 -4 15 4 8 1 15 -5 15 -6 0 -11 -4 -11 -10 0 -5 -6
-10 -14 -10 -9 0 -12 7 -9 23 4 18 3 19 -6 7 -7 -10 -11 -11 -11 -2 0 6 -12
12 -27 13 -24 0 -25 1 -8 8 19 8 19 8 -2 15 -25 8 -30 22 -11 28 7 3 2 7 -10
10 -12 4 -20 2 -17 -2 3 -5 0 -12 -7 -16 -7 -4 -10 -4 -6 1 8 9 -18 65 -31 65
-4 0 -13 11 -19 25 -10 21 -9 25 3 25 8 0 15 5 15 10 0 6 3 10 6 10 4 0 4 -9
1 -21z m-305 -116 c-10 -4 -9 -10 5 -26 14 -18 15 -19 1 -9 -9 7 -23 12 -30
10 -7 -2 -15 0 -16 5 -6 20 0 27 26 26 15 0 21 -3 14 -6z m-648 -201 c11 -9
16 -11 12 -4 -4 6 -2 12 3 12 6 0 11 -4 11 -10 0 -5 8 -10 18 -11 14 0 14 -2
-3 -9 -29 -12 -42 -12 -57 3 -7 6 -29 20 -48 29 l-35 17 39 -5 c22 -2 49 -12
60 -22z m361 -494 c15 -40 31 -85 37 -100 6 -15 15 -25 21 -21 6 3 7 1 3 -6
-4 -7 6 -25 26 -45 34 -34 47 -66 28 -66 -5 0 -10 -4 -10 -10 0 -5 7 -10 15
-10 8 0 15 -5 15 -11 0 -8 -16 -10 -52 -4 -29 4 -69 8 -88 10 -51 4 -50 3 -51
23 0 14 -2 14 -9 -3 -8 -19 -8 -19 -17 4 -7 16 -12 20 -17 13 -4 -7 -12 -10
-17 -6 -5 3 -31 8 -57 11 -26 2 -49 6 -50 8 -2 2 -1 17 2 33 10 41 169 252
191 252 2 0 15 -33 30 -72z m270 -6 c-3 -3 -11 0 -18 7 -9 10 -8 11 6 5 10 -3
15 -9 12 -12z m54 -46 c-3 -3 -11 5 -18 17 -13 21 -12 21 5 5 10 -10 16 -20
13 -22z m99 -41 c-29 -27 -38 -31 -38 -15 0 8 46 38 60 40 3 0 -7 -11 -22 -25z
m-21 -251 c-3 -3 -12 -4 -19 -1 -8 3 -5 6 6 6 11 1 17 -2 13 -5z m-497 -24
c11 -7 6 -10 -20 -10 -26 0 -31 3 -20 10 8 5 17 10 20 10 3 0 12 -5 20 -10z
m50 -15 c5 3 12 0 15 -6 5 -7 1 -10 -10 -7 -10 1 -20 9 -21 16 -1 7 0 8 3 2 2
-5 9 -8 13 -5z m45 -15 c3 -5 1 -10 -4 -10 -6 0 -11 5 -11 10 0 6 2 10 4 10 3
0 8 -4 11 -10z m118 -27 c-7 -2 -19 -2 -25 0 -7 3 -2 5 12 5 14 0 19 -2 13 -5z
m227 -8 c0 -2 -9 -3 -19 -2 -11 0 -18 5 -15 9 4 6 34 0 34 -7z m-910 -425 c0
-5 -5 -10 -11 -10 -5 0 -7 5 -4 10 3 6 8 10 11 10 2 0 4 -4 4 -10z m-165 -80
c4 -6 5 -14 2 -16 -7 -7 -107 7 -103 15 7 11 94 12 101 1z m355 -32 c0 -13
-23 -5 -28 10 -2 7 2 10 12 6 9 -3 16 -11 16 -16z m30 12 c0 -5 -4 -10 -10
-10 -5 0 -10 5 -10 10 0 6 5 10 10 10 6 0 10 -4 10 -10z m10 -40 c0 -5 14 -10
31 -10 18 0 37 -6 43 -14 6 -7 30 -16 53 -19 33 -4 43 -2 45 11 3 14 6 13 23
-4 11 -12 38 -27 60 -34 22 -7 46 -17 53 -23 19 -15 62 -18 62 -4 0 8 3 8 11
0 6 -6 17 -9 24 -7 6 3 18 -2 25 -11 12 -14 11 -18 0 -25 -9 -6 -17 -4 -22 3
-5 8 -8 7 -8 -5 0 -11 -5 -15 -15 -12 -8 3 -28 1 -44 -4 -16 -6 -33 -7 -37 -3
-5 4 -31 13 -59 19 -67 17 -235 99 -262 128 -21 23 -21 24 -3 24 11 0 20 -4
20 -10z m-339 -47 c-9 -7 -19 -13 -23 -13 -13 0 -9 18 5 23 6 2 -1 2 -16 -1
-28 -4 -28 -3 -11 16 16 19 18 20 39 4 20 -15 21 -18 6 -29z m486 25 c-3 -8
-6 -5 -6 6 -1 11 2 17 5 13 3 -3 4 -12 1 -19z m374 -75 c8 13 14 15 29 7 13
-7 21 -7 25 0 3 5 14 10 23 10 22 0 0 -23 -25 -25 -10 -1 -25 -5 -33 -7 -8 -3
-32 -10 -53 -16 -33 -9 -38 -8 -33 4 3 8 -1 17 -10 21 -12 4 -13 8 -3 14 8 4
25 1 42 -9 27 -16 29 -16 38 1z m-737 -54 c-8 -14 -24 -10 -24 6 0 9 6 12 15
9 8 -4 12 -10 9 -15z m157 -22 c-7 -7 -7 -16 0 -29 8 -14 6 -20 -7 -25 -12 -4
-14 -14 -10 -37 4 -20 3 -26 -3 -17 -5 7 -13 11 -19 7 -6 -4 -12 5 -14 21 -2
23 -9 29 -37 33 -60 9 -50 30 13 30 49 0 56 2 56 20 0 13 5 18 16 13 10 -4 12
-9 5 -16z m89 3 c0 -5 -9 -10 -19 -10 -11 0 -23 5 -26 10 -4 6 5 10 19 10 14
0 26 -4 26 -10z m137 -20 c11 0 13 -3 5 -12 -6 -7 -25 -13 -44 -13 -24 0 -34
5 -36 19 -4 16 0 18 28 12 18 -3 39 -6 47 -6z m-90 -6 c-3 -3 -12 -4 -19 -1
-8 3 -5 6 6 6 11 1 17 -2 13 -5z m228 -14 c17 -7 16 -9 -10 -9 -16 0 -37 4
-45 9 -12 8 -10 10 10 9 14 0 34 -4 45 -9z m-65 -46 c0 -8 -9 -14 -19 -14 -11
0 -23 -5 -26 -10 -4 -6 -11 -8 -16 -5 -5 4 1 19 13 35 16 23 25 27 35 19 7 -6
13 -18 13 -25z m80 16 c0 -5 -10 -10 -22 -9 -22 0 -22 1 -3 9 11 5 21 9 23 9
1 1 2 -3 2 -9z m-160 -45 c0 -8 5 -15 10 -15 6 0 10 -7 10 -16 0 -24 -25 -11
-28 15 -3 20 -8 22 -38 19 -19 -2 -34 0 -34 4 0 4 18 8 40 8 29 0 40 -4 40
-15z m153 8 c-7 -2 -19 -2 -25 0 -7 3 -2 5 12 5 14 0 19 -2 13 -5z m-293 -37
c0 -8 -4 -18 -10 -21 -5 -3 -10 3 -10 14 0 12 5 21 10 21 6 0 10 -6 10 -14z
m70 -1 c7 -8 19 -15 26 -15 8 0 14 -5 14 -11 0 -6 -14 -9 -32 -7 -25 2 -34 8
-36 26 -4 25 10 29 28 7z"/>
<path d="M1468 793 c7 -3 16 -2 19 1 4 3 -2 6 -13 5 -11 0 -14 -3 -6 -6z"/>
<path d="M1698 723 c7 -3 16 -2 19 1 4 3 -2 6 -13 5 -11 0 -14 -3 -6 -6z"/>
<path d="M2481 3054 c0 -11 3 -14 6 -6 3 7 2 16 -1 19 -3 4 -6 -2 -5 -13z"/>
<path d="M2021 2774 c0 -11 3 -14 6 -6 3 7 2 16 -1 19 -3 4 -6 -2 -5 -13z"/>
<path d="M1531 2684 c0 -11 3 -14 6 -6 3 7 2 16 -1 19 -3 4 -6 -2 -5 -13z"/>
<path d="M1465 2670 l-30 -8 37 -1 c20 0 40 4 43 9 7 11 -6 11 -50 0z"/>
<path d="M1190 2565 c-11 -13 -8 -15 18 -15 36 0 62 9 62 21 0 15 -67 10 -80
-6z"/>
<path d="M1535 2550 c-3 -5 -1 -10 4 -10 6 0 11 5 11 10 0 6 -2 10 -4 10 -3 0
-8 -4 -11 -10z"/>
<path d="M211 2093 c12 -23 29 -45 37 -48 29 -11 23 4 -18 47 l-42 43 23 -42z"/>
<path d="M3228 2046 c-8 -8 -26 -11 -46 -8 -29 4 -33 2 -38 -27 -4 -17 -10
-31 -15 -31 -16 0 -10 -97 5 -103 8 -3 23 -21 32 -39 9 -18 25 -40 35 -49 11
-9 19 -21 19 -26 0 -5 18 -29 41 -51 34 -35 45 -41 67 -36 15 4 31 11 36 15 6
5 18 9 27 9 16 0 79 85 79 108 0 6 -5 22 -11 36 -10 21 -21 26 -70 32 -59 7
-115 33 -125 58 -3 8 4 33 15 57 16 32 18 46 10 56 -15 17 -44 17 -61 -1z"/>
<path d="M2800 1926 c0 -8 7 -16 15 -20 8 -3 15 -12 15 -20 0 -7 -7 -16 -15
-20 -8 -3 -15 -13 -15 -23 1 -43 114 -77 144 -44 22 24 20 54 -4 76 -11 10
-20 24 -20 32 0 7 -9 13 -20 13 -11 0 -20 5 -20 10 0 6 -18 10 -40 10 -28 0
-40 -4 -40 -14z"/>
<path d="M2595 1850 c-3 -5 1 -10 10 -10 9 0 13 5 10 10 -3 6 -8 10 -10 10 -2
0 -7 -4 -10 -10z"/>
<path d="M1050 1831 c0 -6 5 -13 10 -16 6 -3 10 1 10 9 0 9 -4 16 -10 16 -5 0
-10 -4 -10 -9z"/>
<path d="M3840 1727 c0 -16 -21 -27 -51 -27 -22 0 -24 -8 -5 -32 28 -38 100
-7 94 40 -3 28 -38 45 -38 19z"/>
<path d="M960 1604 c0 -8 5 -12 10 -9 6 3 10 10 10 16 0 5 -4 9 -10 9 -5 0
-10 -7 -10 -16z"/>
<path d="M3027 1555 c-20 -14 -30 -64 -17 -81 7 -7 9 -18 5 -24 -4 -6 5 -10
23 -10 29 0 68 31 74 60 2 8 7 18 12 22 17 11 -13 36 -49 40 -18 2 -40 -1 -48
-7z"/>
<path d="M3937 1521 c-13 -16 -35 -31 -47 -33 -33 -4 -46 -31 -34 -65 12 -37
48 -42 80 -12 13 12 24 31 24 40 0 10 9 26 20 36 13 13 17 26 13 41 -7 30 -26
28 -56 -7z"/>
<path d="M933 1523 c-15 -5 -17 -23 -4 -23 5 0 11 7 15 15 3 8 4 15 3 14 -1 0
-8 -3 -14 -6z"/>
<path d="M1081 1504 c0 -11 3 -14 6 -6 3 7 2 16 -1 19 -3 4 -6 -2 -5 -13z"/>
<path d="M3366 1354 c-21 -14 -41 -34 -43 -45 -3 -10 -10 -19 -17 -19 -6 0 -4
-4 4 -10 8 -5 12 -12 8 -15 -3 -4 -15 -1 -27 7 -16 10 -27 10 -50 1 -21 -7
-44 -8 -72 -2 -23 5 -44 7 -47 5 -2 -3 -14 0 -26 7 -44 25 -64 11 -65 -46 -1
-18 3 -26 10 -22 6 4 18 -3 26 -15 11 -16 18 -19 26 -11 16 16 59 14 94 -4 27
-14 37 -13 99 2 38 10 71 21 74 24 10 13 81 49 95 49 25 0 48 60 36 93 -9 23
-16 27 -48 26 -23 0 -53 -10 -77 -25z"/>
<path d="M928 1363 c6 -2 18 -2 25 0 6 3 1 5 -13 5 -14 0 -19 -2 -12 -5z"/>
<path d="M993 1363 c9 -2 25 -2 35 0 9 3 1 5 -18 5 -19 0 -27 -2 -17 -5z"/>
<path d="M1175 1360 c3 -5 11 -10 16 -10 6 0 7 5 4 10 -3 6 -11 10 -16 10 -6
0 -7 -4 -4 -10z"/>
<path d="M890 1352 c0 -14 16 -27 33 -28 25 -2 21 9 -8 23 -14 6 -25 8 -25 5z"/>
<path d="M1128 1353 c6 -2 18 -2 25 0 6 3 1 5 -13 5 -14 0 -19 -2 -12 -5z"/>
<path d="M3649 1336 c-12 -25 -39 -36 -39 -16 0 6 -9 10 -20 10 -23 0 -24 -8
-10 -59 5 -20 12 -53 15 -73 5 -31 10 -38 28 -38 27 0 36 -7 65 -44 29 -37 28
-68 -3 -120 l-25 -42 26 -35 c28 -37 74 -130 74 -150 0 -24 44 -109 56 -109 6
0 29 16 50 36 22 20 50 44 63 55 22 18 24 25 23 121 -1 87 -3 104 -19 114 -10
7 -42 32 -70 56 -52 43 -66 74 -38 84 8 3 33 24 55 46 39 39 50 56 30 43 -11
-7 -35 70 -31 100 3 19 1 19 -19 -3 -21 -22 -23 -22 -47 -7 -20 13 -31 15 -48
7 -19 -9 -30 -6 -64 19 l-41 31 -11 -26z"/>
<path d="M1080 1340 c-8 -5 -12 -11 -9 -14 2 -3 11 -1 19 4 8 5 12 11 9 14 -2
3 -11 1 -19 -4z"/>
<path d="M1003 1310 c-13 -20 -7 -54 8 -45 4 3 6 12 3 19 -3 8 -1 17 5 21 13
7 15 25 3 25 -4 0 -13 -9 -19 -20z"/>
<path d="M1145 1310 c-6 -20 -25 -28 -25 -11 0 13 -32 23 -42 13 -5 -5 -2 -14
7 -22 8 -7 15 -28 15 -47 0 -24 7 -41 23 -54 24 -20 57 -25 57 -9 0 6 -8 10
-17 11 -11 0 -13 3 -5 6 6 2 9 9 6 15 -4 6 -1 14 7 18 15 10 21 40 8 40 -5 0
-9 -4 -9 -10 0 -5 -8 -10 -17 -9 -11 0 -13 3 -5 6 6 2 12 11 12 19 0 8 6 11
15 8 23 -9 19 23 -4 36 -16 8 -21 6 -26 -10z"/>
<path d="M3021 1314 c0 -11 3 -14 6 -6 3 7 2 16 -1 19 -3 4 -6 -2 -5 -13z"/>
<path d="M515 1300 c3 -5 8 -10 11 -10 2 0 4 5 4 10 0 6 -5 10 -11 10 -5 0 -7
-4 -4 -10z"/>
<path d="M925 1290 c-3 -5 -1 -10 4 -10 6 0 11 5 11 10 0 6 -2 10 -4 10 -3 0
-8 -4 -11 -10z"/>
<path d="M522 1244 c1 -9 9 -19 16 -22 9 -3 13 2 10 14 -1 9 -9 19 -16 22 -9
3 -13 -2 -10 -14z"/>
<path d="M440 1194 c0 -8 5 -12 10 -9 6 4 8 11 5 16 -9 14 -15 11 -15 -7z"/>
<path d="M462 1140 c0 -14 2 -19 5 -12 2 6 2 18 0 25 -3 6 -5 1 -5 -13z"/>
<path d="M395 1063 c-22 -27 -26 -38 -16 -41 7 -2 22 -13 32 -23 17 -17 18
-16 34 38 9 30 14 57 12 60 -3 2 -8 -9 -12 -26 -4 -17 -11 -29 -16 -25 -5 3
-6 16 -3 30 8 31 5 30 -31 -13z"/>
<path d="M3099 1018 c-14 -6 -19 -15 -17 -30 2 -18 9 -23 31 -21 15 1 25 -2
22 -8 -4 -5 -2 -9 3 -9 5 0 13 -10 19 -22 15 -34 -4 -88 -43 -125 -19 -17 -34
-40 -34 -51 0 -27 32 -52 76 -59 22 -3 41 -9 44 -12 11 -13 86 -34 132 -36 64
-4 82 16 46 50 -14 13 -29 21 -33 17 -4 -4 0 9 10 28 25 47 28 85 10 126 -10
25 -20 34 -38 34 -52 0 -87 12 -87 31 0 9 -11 26 -24 37 -17 12 -23 26 -20 39
5 17 0 19 -36 19 -22 -1 -50 -4 -61 -8z"/>
<path d="M1975 890 c-3 -6 1 -7 9 -4 18 7 21 14 7 14 -6 0 -13 -4 -16 -10z"/>
<path d="M3980 514 c-8 -16 -25 -46 -38 -67 -22 -36 -22 -42 -10 -95 16 -72
16 -74 0 -80 -7 -2 -29 13 -50 34 -20 21 -41 38 -47 39 -5 0 -11 12 -13 27 -3
22 -9 27 -40 31 -20 3 -52 9 -70 13 -24 5 -38 2 -52 -11 -13 -12 -27 -15 -50
-10 -17 4 -36 2 -43 -4 -9 -7 -21 -6 -41 4 -32 17 -72 21 -47 6 10 -7 8 -11
-10 -16 -13 -4 -26 -11 -29 -15 -3 -4 -15 -4 -27 1 -20 7 -28 25 -24 51 0 4
-16 15 -37 24 -20 9 -55 25 -78 35 -23 11 -68 20 -107 21 -66 3 -66 3 -105
-38 -39 -40 -39 -41 -20 -55 70 -48 127 -102 173 -164 21 -27 47 -58 59 -67
11 -10 17 -18 12 -18 -5 0 -3 -7 4 -15 6 -8 9 -23 6 -33 -4 -13 -1 -22 9 -26
11 -4 14 -13 10 -26 -5 -15 -2 -20 12 -20 14 0 15 -2 4 -9 -22 -14 -5 -27 38
-29 l41 -3 -21 48 c-37 86 -52 118 -72 146 -14 21 -17 31 -8 40 8 8 11 8 11
-1 0 -7 6 -12 13 -12 12 0 135 -127 194 -198 18 -22 21 -23 233 -20 200 3 228
7 158 22 -46 10 -52 102 -8 113 16 4 20 14 20 44 0 43 16 52 30 17 5 -14 9
-17 10 -8 1 9 6 5 13 -10 10 -21 12 -11 15 73 1 53 1 140 0 194 -3 92 -4 95
-18 67z m-690 -274 c0 -5 -2 -10 -4 -10 -3 0 -8 5 -11 10 -3 6 -1 10 4 10 6 0
11 -4 11 -10z"/>
</g>
</svg>
