<svg xmlns="http://www.w3.org/2000/svg" fill-rule="evenodd" stroke-linejoin="round" stroke-miterlimit="2" clip-rule="evenodd" viewBox="0 0 1080 1080">
  <path fill="#fff" d="M0 0h1080v1080H0z"/>
  <g fill-rule="nonzero">
    <path fill="#656567" d="M526 50c-35 7-69 19-101 34-12 6-34 16-42 27 9-5 19-13 29-15-3 7-11 9-15 15 19-8 33-24 52-32 28-12 61-22 91-24 13-1 26 3 38 2v-2c-10-3-32-8-40-3-4 2-12 0-12-2m54 5c6 7 23 6 31 10 23 9 55 24 70 44l5-1-2 6c14-3 9 18 23 16-1 3 14 14 18 19 16 22 32 43 47 67 2-13-17-28-20-40 8 3 14 16 19 23 2-14-27-39-35-49-44-47-92-84-156-95z"/>
    <path fill="#202125" d="M318 179l2 5c-7-1-12 17-14 23 15 0 7-18 17-19 1-6 5-9 4-15 16-1 22-41 43-38l-3-5c10 1 41-24 45-34-14 1-29 16-39 25-11 10-23 15-34 26-9 10-13 22-21 32z"/>
    <path fill="#656567" d="M380 111c-12 14-32 19-42 37 13-8 38-22 44-37h-2m14 2l1 1-1-1m-14 13l12-10c-5-1-10 6-12 10m-4 2c-3 2-5 2-9 2l3 5c-21-4-27 36-43 38 0 6-4 9-4 15-10 1-3 19-17 19 4-9 6-13 8-23-11 10-14 31-17 44-8 38-16 77-16 116 4-13 7-35 5-49 8 3 2 7 3 13 6 16-12 54 1 67 4 4 12-10 16-12 14-5 36-2 50 0-9-4-18-1-26-7-4 4-14 5-15-2-3 2-18 14-21 14-7-1-4-14-4-18 2-17 3-38 14-51v7c9-7 8-31 13-42l41-104c3-8 19-26 18-32m-20 26c-2-2-2-4-3-7 4 1 4 3 3 7m-20-6c-5 6-29 33-16 36l-2-4c4-6 19-25 18-32m18 8v2h-3v-2h3m-7 2c5 5-4 27-11 27-4 0 0-14 1-16 4-4 8-6 10-11z"/>
    <path fill="#202125" d="M752 176c2 11 12 21 17 31 8 15 14 32 19 48 3 9 0 24 8 30 0-30-10-58-24-84-4-7-11-23-20-25z"/>
    <path fill="#656567" d="M346 180l-3 4 1-4h2m-8 9c-1 2-1 3-4 4 1-3 1-3 4-4m1 7c-1 3-4 10-8 10 0 7-6 13-4 19h-6c3 5 0 12-6 13 3-10 4-18 13-25-7-5 5-17 11-17m-17 4c0 4-1 7-5 9l2-9h3m450 0c5 15 12 33 19 47 1-13-9-38-19-47m-452 15c0 2-1 3-3 3l3-3m453 2c2 9 7 28 13 34-2-10-5-27-13-34m-461 10c2 17 5 32-11 45 0-7 6-9 7-15 3-10-2-22 4-30m480 21c1 13 4 24 4 37-4-4-5-10-5-16h-2c0 19 3 36 6 55 1 5 5 16 3 20-3 4-37-1-43-1-44-1-84 17-128 17 40 14 89-24 131-15 8 1 42 8 48 1-9-2-12-27-7-34 0 6 2 28 7 31 9 7 32 4 38 13 8 14-5 27-9 38 10-9 17-24 11-37-6-14-35-6-40-17-12-27 2-67-14-92m-6 4c0 5 0 11 2 16 2-5 2-12-2-16z"/>
    <path fill="#202125" d="M288 287l3 5c1-3 0-4-3-5m506 1c0 6 0 18 6 22l-3-22h-3z"/>
    <path fill="#656567" d="M304 292c-2 5-7 13-12 15 2-7 4-14 12-15z"/>
    <path fill="#202125" d="M286 295c2 25-5 51-5 76h3v-8c2 6 20 41 23 19h-8c2-3 3-5 3-8 25 9 46 15 74 18 16 2 31-3 46 7 22 15 18 45 30 67 20 36 74 32 108 22 30-8 46-38 57-65 4-10 8-38 23-38 15-1 19 12 25 23 10 22 14 56 37 69 27 16 95 3 114-22 11-15 11-38 17-55 5-16 15-23 12-41-2-11-30-10-39-16-4-3-7-25-7-31-6 6-2 33 7 34-7 5-23 0-32 0-28-1-52 0-80 4-20 3-38 11-59 11-34 0-67-9-101-7-36 2-70 19-105 21-19 1-44-8-63-11-19-2-40-5-58-2-5 1-13 15-17 13-5-2-3-12-3-16-2-16 6-35 2-51-2-6 5-11-4-13z"/>
    <path fill="#656567" d="M280 346c0 8-4 21-1 28 3 6 14 11 19 17 8 9 16 23 21 34 8 17 5 36 3 54 7-2 3-8 4-13 4-14 5-32 6-44-10 8-18-17-23-26-1 3 0 4 1 7-3-2-11-14-3-11 1-6 4-9 10-9-4-6-8-7-15-9l-3 8h8c-4 19-22-10-22-19l-1 8h-3c0-8 2-17-1-25m398 19c5 0 32-9 34-5s-33 13-36 17c-13 14 7 63 22 71-4-14-7-22-5-35 1-3 0-12 5-11 4 1 5 8 7 10 4 5 16 8 22 7 14-2 5-20 14-23 7-3 17 9 25 10-8-22-37-20-55-19v2h28l-2 4c-1-2-2-3-4-3l1 5c-11 0-6 12-16 14 0-8-10-23-10-10 0 4 4 7 5 11-10-6-15-13-3-20h-6c10-17 37-10 53-8-5-10-23-3-30-10-5-6 11-12 3-14 9-9 35-3 47-5-22-6-50 0-72 4-9 1-20 2-27 8m-275 4c37 14 91-10 130-15 31-4 62 6 93 6v-2c-32-1-62-8-94-5-35 3-69 18-103 20-8 0-18-4-26-4m375-16l20 4c-5-5-14-4-20-4m-58 3c-1 3-1 3-4 4 1-3 1-3 4-4m9 1l-6 1v-2l6 1m86 9c-6-11-28-3-26 0 4 6 19-4 26 0m-344 8c42-15 102-19 141 2-4-10-22-12-31-13-26-4-59-4-85 2-7 2-20 3-25 9m192-11c-2 3-11 25-4 21 5-3 7-24 4-21m-306 0c12 4 30 6 43 6-13-5-30-6-43-6m254 0c1 2 1 2 3 2l-3-2m11 20c17-4-9-30-3-11 2 4 4 6 3 11m-82-17l13 2c-4-2-8-2-13-2z"/>
    <path fill="#202125" d="M678 385c-1-2-2-3-4-3 0 7-2 24 8 24-1 3 1 19 5 16 6-6 1-18 2-24 3-12 20-21 31-21v-3h-6l3-7c-11-4-35 8-39 18z"/>
    <path fill="#656567" d="M675 367c-7 12-10 21-5 35 2-13 3-22 7-35h-2m140 0c13 54-5 103-67 107-15 1-30-4-44-8 8 9 28 9 39 9 45 0 75-24 78-69 1-10 2-31-6-39m18 10c-8-6-9 0 0 0m-579 13c6-5 12-11 16-17-9 1-15 9-16 17m197 3l-5 5c5 6 2 13 0 20 13-11 5-32 24-43-8-2-11 10-17 12-6 3-14-3-21 0-14 6 15 7 19 6m-48-8c4-1 9 2 12 1 5-2-12-19-12-1m209-8v15c4-4 4-11 0-15m-62 35c8-3 24 10 27-3-7 1-10 2-13-6-4 10-12 0-19-3-14-4-34-9-47-2 4 1 25-4 27 2 0 0-11 15-12 19l-6-4 1 4c-6-2-12-10-19-9-7 0-12 9-20 11 5-13 23-11 28-22-2 1-14 7-14 1 0-8 14-10 19-11 19-2 32-3 51-3-2-9-19-8-26-7-21 3-43 5-60 20-5 4-14 11-12 18 1 2 4 2 6 3 4 4 10 12 17 8 4-3 6-13 11-12 13 2 18 16 34 7 6-4 2-19 9-21 4-1 16 7 18 10z"/>
    <path fill="#202125" d="M304 379l4 1-4-1z"/>
    <path fill="#656567" d="M660 380l-3 4c0-3 0-3 3-4m116 23l-4-9c-16-29-10 6 4 9m50-23c2 3 4 2 6 0h-6m-449 2v3h3v-3h-3m38 0l-3 2c1-2 1-2 3-2m-97 1c3 4 14 12 19 13l-3-7c32 6 62 3 92 13-10-13-29-10-43-10-21 0-45-3-65-9m317 4c14-2 17 4 25 13-1-9-17-22-25-13m-376 4c4 1 7-1 11 2l1-1c-5-4-7-4-12-1m372-1l3-3-3 3m-210-1v3h2v-3h-2z"/>
    <path fill="#202125" d="M713 410c-1-4-5-7-5-11 0-14 9 5 10 10 10-1 5-13 16-14l-1-5 4 3 2-4c-9 0-21-2-30 1-13 6-5 16 4 20m-454 49c0-13-3-59 15-61-1-6-11-11-15-5-8 13-7 36-7 50 0 5 1 15 7 16m51-56c-8-20-10-4 0 0m165-6c4 0 6-1 7-5-3 1-5 2-7 5z"/>
    <path fill="#656567" d="M628 394l3-2-3 2m-370-1c-6 10-8 28-8 39 0 4 2 13-2 14 0 25 10 60 20 83 2 5 5 23 10 24-8-31-24-63-26-95 3 2 4 3 5 6 3-5-4-14-5-20-1-17 8-35 6-51m14 0l2 5c-10 1-12 14-12 22 2-4 4-19 9-20 4 0 10 7 12 10 8 9 24 22 24 36 0 9-22 18-26 28 14 0 22-21 36-17-10-23-21-51-45-64m286 0c1 3 1 3 4 3l-4-3m53 1l-2 15c3-4 4-10 2-15m101 1c4-2 4 4 1 6s-4-5-1-6m-87 5l3-3-1-1-2 4m209-4c-3 8-3 16-6 23 5-4 7-17 6-23m-399 1c2 5 6 6 11 6-4-2-7-5-11-6z"/>
    <path fill="#202125" d="M469 421c8-1 13-10 20-11s13 8 19 9l-1-4c3 1 3 2 5 4l13-19c0-3-13-3-16-3-11 0-37 13-40 24z"/>
    <path fill="#656567" d="M576 402c6 2 9-6 0 0m-75-1c8 0 3 6-2 2-2 17 21-13 2-2m-20 5c-3-1-3-1-4-4 3 1 3 1 4 4m180-4l6 13 1-1-7-12m-233 2l1 1-1-1m243-1l3 12c1-4-1-8-1-12h-2m-241 3l5 9c1-4-2-7-5-9m9 0l3 6c1-3 1-5-3-6m36 0v4h-3v-4h3m-4 4c-1 5-6 11-9 4l9-4m137 0c-1 4-3 8-3 13 3-4 4-8 3-13m12 0l-2 11c2-4 3-7 2-11m-183 7l1 1-1-1m238-1l2 6 1-1-3-5m-227 3c0 9 1 17 3 26 1-7-1-19-3-26m379 1c-4 7-4 17-6 25 4-5 7-18 6-25m-566 2l-2 29h2c0-9 3-21 0-29m356 0l-2 3 1 1 2-3-1-1m53 0l4 12c0-4-1-9-4-12m-232 1c1 7 3 15 6 22 1-6-2-17-6-22m240 0l2 6-2-6m-176 28c18 6 68-6 75-26-13 0-22 11-34 16-14 5-27 6-41 10m101-26l-4 10h2l4-9-2-1m11 3l-4 10c2-3 4-6 4-10m67 3l2 5c0-2 0-3-2-5m-6 4c1 6 2 11 5 16 0-5-2-12-5-16m-77 1l-2 5c2-2 2-3 2-5m86 2l8 17c1-5-4-14-8-17m-75 1l-1 3 1-3m-14 3l-3 6c2-2 3-3 3-6m12 1l-2 4 1 1 1-5m-155 3l1 5 1-5h-2m368 0l-3 9c2-3 3-5 3-9m-375 3c1 6 3 11 6 17 0-5-3-12-6-17m146 0l-2 6c2-2 2-3 2-6m13 1l1 1-1-1m-150 2l7 16 1-1-8-15m148 0l-6 8 1 1 6-8-1-1m79 0l2 5c0-2 0-3-2-5m134 3l1 1-1-1m-1 2l-5 4 1 1 5-4-1-1z"/>
    <path fill="#202125" d="M252 458c1 31 16 71 28 99 5 11 10 25 21 30-2-9-11-17-15-26-12-27-29-69-27-99-3 2-3-4-7-4z"/>
    <path fill="#656567" d="M586 458l-7 7 1 1 7-7-1-1m98 0l1 3 1-3h-2m13 1c1 3 3 4 5 6l1-1-6-5m121 2c0 53-6 106-21 157-7 24-19 47-25 72 8-6 8-17 11-26 5-16 15-31 18-48 6 26-22 55-25 80h2c4-21 17-41 23-61 16-57 22-116 20-174h-3m-223 1l-5 5 1 1 5-5-1-1m212 1l1 1-1-1m-548 1c-3 15 6 33 11 47 6 16 8 33 15 49 4 10 12 17 16 27l-10-8c6 13 22 19 31 29 6 7 5 18 10 26 0-9-4-18-6-26 10 8 10 21 14 33 3-11-5-32-5-45h3v5h2c-1-36-16-72-16-109-6 2-4 10-4 15l-6-6c1 7 7 10 7 17l-3-4-3 4h5c-3 7 2 14 2 21 2 22 9 44 9 66-36-22-47-52-58-91-4-17-12-32-12-50h-2m430 1l1 3-1-3m112 2c2 0 3 0 4-2l-4 2m-347 2l3 6 1-1-4-5m8 0l9 8 1-1-10-7m127 0l-7 8 1 1 7-8-1-1m102 0c7 12 10 25 15 38 2-4-10-21-2-22 3-8 16-1 22-1 19 1 41-1 59-9-11-2-28 5-40 7-22 2-36-3-54-13m95 4c4 1 8-1 12-3-4-1-8 2-12 3m-214-2c-25 13-53 17-81 13 21 11 64 1 82-12l-1-1m-113 6c2 2 3 4 6 5l-6-5m-175 7l-2 7c7-3 5-7 4-13-3 1-8 5-2 6m190-6c4 5 10 6 16 6-5-3-11-4-16-6m106 0l-7 5c3 0 5-2 8-4l-1-1m122 1v2-2m-236 3c2 3 5 4 8 6-2-3-5-5-8-6m-145 2v6c2-2 3-3 3-6h-3m232 6c6 1 13-2 19-5-6-1-13 3-19 5z"/>
    <path fill="#202125" d="M701 484c0 12 8 21 10 32 1 6-3 13 1 18 17 23 38 30 44 60 10-24-28-60-38-81-5-10-7-23-17-29z"/>
    <path fill="#656567" d="M704 487c10 14 13 30 22 44 13 22 33 35 31 63-10-26-23-42-45-60-2 6 8 9 11 13 10 10 25 21 29 36 2 6-5 21 0 22-6 3-9 20-2 23v-7c10 0 13-35 12-43-3-14-14-21-22-32s-14-24-20-36c-4-8-8-19-16-23m-229 1l5 3-5-3m-188 3l-1 6c2-2 2-3 1-6m194 0l12 3v-2l-12-1m14 3c15 5 41 2 56-2-14-5-40 2-56 2m45 39c10-2 12-13 24-13-6 7-18 16-20 26 15-10 30-31 34-49-11 5-31 26-38 36m167-25c1 7-2 24 4 25-1-8 3-19-4-25z"/>
    <path fill="#202125" d="M491 603c3-19 20-28 34-40s28-27 39-43c-12-1-19 10-27 18-13 14-30 26-44 41-5 5-13 21-2 24z"/>
    <path fill="#656567" d="M593 534c3 7 8 12 15 13 2-13 27-13 37-8 5 3 10 11 0 10 0 4-4 12-3 15 1 4 9 0 11 0 6-1 18 6 24 8-1-9-14-17-13-26 0-7 12-10 14-17-5 1-12-1-17 2-2 1-4 8-8 7-10-2-14-13-27-12-12 0-21 8-33 8z"/>
    <path fill="#202125" d="M622 528c-5 1-13 2-17 5-1 1-7 9-2 9l38-9c4-5-17-6-19-5z"/>
    <path fill="#656567" d="M687 540c22-9-6-19 0 0m-310-10c0 19 10 33 15 51 4-9-6-47-15-51m162 4l-8 7c4 0 8-3 8-7z"/>
    <path fill="#202125" d="M324 536c0 8-1 38 9 40-3-10-1-34-9-40z"/>
    <path fill="#656567" d="M528 543c-10 15-47 31-45 52 1 10 8 14 11 22 2-7-1-15 1-22 4-10 13-14 19-23-12 6-22 18-23 31-24-18 36-46 39-60h-2m128 1l3 6c-4-1-4-3-3-6m-140 28c9-7 21-15 27-25-8 3-23 17-27 25m-238-18c1 7 4 14 9 19l1-1c-4-6-5-13-10-18z"/>
    <path fill="#202125" d="M811 556v5l3-5h-3z"/>
    <path fill="#656567" d="M288 574c0 3 0 3 3 4l-3-4m219 19c3 14 33 15 44 16 45 3 92 1 137 6 15 2 23 2 37-1 4 0 10-3 11 2 7-4 3-13-4-14-9-1-16 6-25 6-20 1-43-1-63-1-6 0-11-3-16-4-25-3-53 2-79-1-14-2-28-9-42-9z"/>
    <path fill="#202125" d="M320 601c1 3 2 4 5 5-1-3-2-4-5-5m388 11c4 2 29 0 24-6-4-4-19 5-24 6m-382-4c5 41 26 88 50 122 4-7-6-21-9-28-9-23-21-44-29-68-3-9-2-21-12-26m475 8c-6 22-15 46-24 66-6 13-15 26-15 40 17-20 22-51 31-74 4-9 12-22 8-32z"/>
    <path fill="#656567" d="M333 635l3 18c1-5-1-13-3-18m8 7l2 9v-9h-2m281 1c-5 1-34-2-36 3-1 3 18 5 21 5 14 2 30 0 44 2 8 1 19 6 28 3 2-1 11-5 7-8-4-4-12-3-17-3-15-1-32-6-47-2z"/>
    <path fill="#202125" d="M613 649c15 0 32 4 47 0-9-5-40-9-47 0z"/>
    <path fill="#656567" d="M344 652c7 25 32 52 33 78l-4-3c14 36 46 64 72 91 12 12 29 30 47 35-3-9-16-14-23-19-43-34-76-78-99-128-7-15-14-43-26-54m-7 2c1 10 6 21 4 31-3 8-11 15-13 24l16-23c0 14 4 30 9 43 2-9-5-45-9-54l5 6c1-7-8-21-12-27m13 28l3 5c0-3-1-3-3-5z"/>
    <path fill="#202125" d="M342 686c-17 40-45 73-76 103-5 5-31 24-28 28-9 7-9 17-15 24s-8-2-14-1c-3 1 1 18 1 21l-10-4v19c-7-1-13 16-14 22 3-1 3-1 3-4 1 5-1 6-6 7 8 17 30-25 36-34 10-15 14-33 24-47 14-18 32-29 48-44l16-17c4-4 0-11 8-12l-1 5c13 0 10-5 5-13 4 0 5 3 8 4-1-6 0-11-2-17l9 7v-16c6 3 4 12 6 18 5 17 10 34 17 50 30 70 57 138 79 211l19 61c1 5 5 20 10 22 8 4 0-18-1-20l-20-63c-14-45-27-91-46-134-17-38-41-78-48-119 9 3 20 33 25 42 19 32 50 61 73 91 6 8 17 29 26 31-5-17-22-32-32-46-37-53-98-105-98-175h-2z"/>
    <path fill="#656567" d="M354 688l1 5-1-5m417 3l-5 6c1 3 0 6-1 9 4-3 7-10 6-15m-413 6l5 13c1-5-2-9-5-13m417 0c-5 7-9 17-12 25-1-5 1-10 2-15-5 5-9 26-19 20-4 2-8 3-9-2-9 12-14 16 7 17-2 2-3 2-6 1-1 22-24 31-28 50 16-2 31-37 38-50 2-3 8-20 13-14 5-8 15-22 14-32m-448 13c-3 5-6 10-7 16l8-15-1-1m37 1l5 9c0-4-2-7-5-9m-30 6v16c-3-3-5-6-9-7l2 17c-3-2-4-4-8-4 2 7 10 13-5 13l1-5c-6 1-12 15-17 20-15 16-42 31-52 51 14-5 16-15 32-17-2 4-5 6-6 10 9-3 22-25 18-33 7 1 9 0 15-4-1 5-10 22-15 24l2-5-4-1c-2 15 10 4 16 2-2 5-11 14-16 10-5 6-7 17-4 8 6 3 12-2 14 6l-9-2c1 3 2 4 5 5-12 4-8 12 2 4 7-4 2-12 8-15v5c10-4-2-16 9-23 1 7 1 15-1 22 4-1 6-4 9-6 0 7 2 13 3 20 11-3 13-25 14-22 6-2 9-5 15-4 2-14-4-7-12-4 2-4 6-37 2-37 4 0 8 15 9 18 3-11-10-37-13-48-1-6 2-12-5-14m36 5l3 4-3-4z"/>
    <path fill="#202125" d="M753 884c1 0 19-19 17-11 5-2 4-7 9-9v-4c6 2 14-5 17-2 8 6 6 19 8 28 5 27 16 62 15 90 6-4 3-16 5-23h-6c2-12-4-24-6-35-3-19-4-41-4-60l-5 2-1-12c3 2 5 5 9 6-3-8 0-17-5-25l-5 3c5-32-16-53-26-82-1-3-7-29-11-26-6 5 4 34 5 41 6 43-16 77-16 119z"/>
    <path fill="#656567" d="M767 723c3 15 8 33 17 46 1-8-7-19-9-27 5 5 8 11 12 17 1-8-8-15-11-22l6 3c-4-7-12-8-13-17h-2m-424 3c7 24 9 1 0 0m-25 1l-5 9c3-2 5-5 7-9h-2m36 3c0 3 0 5 3 6l-3-6m408 0l1 16h2c0-6-1-11-3-16m-16 1c-2 12-11 3 0 0m-145 17c-15 18-35 1-52 6l2-5c-5 0-17-5-20-2-6 6 15 16 19 17 24 12 40 10 64 6l-3 6c4 1 9 3 12 6-11 1-8 11-23 9l5 7-7-2c-4 4-10 1-14 4-18 11-37 23-59 13-13-6-23-20-37-23l7 11c-14-8-20-24-36-29 3 9 7 16 17 14-9 11 31 45 41 32-5-1-8-2-10-7 9 1 21 6 23 16-27-11 0 11 11 17 17 8 38-3 51 14 11-5 17 1 0 1 2 7 11 10 2 16-2-4-5-1-3 1 6 4 28 0 31 6 1 2-4 5-4 7 5-1 25 3 28-2 5-9 0-28 2-39 4-20 7-47 18-65 6-8 16-14 23-22 5-5 17-13 4-15-1 6-8 8-13 10 3-12-8-13-18-11 5-7-6-11-12-10-15 0-24 17-38 19-2 1-8-5-11-6m-290-11c-3 5-8 10-10 15 5-2 9-10 12-14l-2-1m46 0c2 8 5 14 9 21 0-7-5-16-9-21z"/>
    <path fill="#202125" d="M776 737c4 12 14 24 20 36 21 40 46 79 64 121 6 13 17 48 33 48l-8-9c9 1 22 15 5 12 0 3 1 13 5 13 3 0 1-8 5-5 6 4 8 14 16 13-2 7 1 12 1 19 4 0 7 0 10 4 2-10-9-49-23-44 4-12-9-26-16-35-18-25-30-51-46-78l12 5c-7-27-30-47-47-68-9-11-18-26-31-32z"/>
    <path fill="#656567" d="M783 740c8 20 34 37 46 55 5 8 14 25 22 29-6-22-34-51-50-67-6-5-11-14-18-17m-466 3v3h3v-3h-3m33 0c3 23 15 43 24 64 8 16 12 34 21 50 3-6-3-8 2-15 4 9 5 16 16 19l-3-6h5l-3-8 6 5c-2 5 19 35 24 35l2 22c8-3 21 34 25 42 2 4 8 10 3 14 5 2 8 2 13 1l-4 7c7 5 10 3 7-5 7 3 5 13 13 14-3-3-3-5 0-7-2-5-3-7-1-12l-5-3c-5 2-11-2-14-6l-19-38c7-1-3-7 2-9 8-3 2 15 10 16l-3-8c15 5 12 23 21 25-5-13 12 2 11 12 10-4 4 2 3 6 8 0 15 2 14 11 15-2 25 14 39 17 5 1 9 7 13 2-36-9-70-55-92-82-9-11-18-33-31-38 7 14 19 24 25 39-9-4-20-23-26-32-22-27-51-55-69-85-6-8-20-45-29-47m196 9l-3 4c0-3 0-3 3-4m-251 7c3-1 4-3 6-5l-1-1-5 6z"/>
    <path fill="#202125" d="M636 759l2 3h-6c1 8 23 5 32 5-8-11-17-17-28-8z"/>
    <path fill="#656567" d="M367 759c1 5 4 9 7 13l1-1-8-12m-75 1v3h2v-3h-2m475 0l1 7 1-7h-2m21 0c2 7 6 13 10 19 0-7-5-14-10-19m-450 3c-2 0-2 0-3-2l3 2z"/>
    <path fill="#202125" d="M606 766c3-1 3-1 4-4-3 1-3 1-4 4m17-4c1 4 3 5 7 5-2-3-3-4-7-5z"/>
    <path fill="#656567" d="M290 763l-4 6 5-5-1-1z"/>
    <path fill="#202125" d="M667 763c1 3 2 3 4 5 0-3-1-4-4-5z"/>
    <path fill="#656567" d="M824 765c5 6 15 3 20 11 16-9 34 27 47 26 1 9 10 18 19 14l-1 6 8-4c0 10 8 29 16 35l-1-15c4 3 6 7 11 6l2 14c6-4 8-10 15-11l-14 25c3-1 5 0 6 3 4-4 7-2 7-9 6 3 20 3 22 8 4-2 3-7 7-8-1 5-5 9-6 14h10c-2-5-3-8 3-10-2 9 4 11 11 7-2 12 8 12 9 22l6-3c0 3 3 18 2 19-3 3-21-3-25-4-19-6-42-18-62-18 2 5 8 11 13 13l-3-8c4 3 6 6 6 11 4-1 6-1 8 2-5 1-5 4 0 5v3l-8-2c1 6 4 7 10 5-2 17 20 34 11 13 9 3 9 15 16 21 0-14-10-24-10-38-4 0-4-6-4-9 7 4 13 6 15 15l5-1c0 7 6 10 4 17 4 2 7 5 9 9 4-4 3-19 2-24 4 5 4 9 4 16 8-4 1-16 8-21v6c6-1 15 24 17 31l-6-3c3 10 6 26 13 34 3 5 17 3 19-2 18 16 12-23 15-31-5-5 0-28 0-35 0-25-2-50-1-74 1-8 4-29 0-36-7-15-45-19-59-22-61-17-133-23-196-23m-461 4v3h-3v-3h3m406 0v37c7-7 3-29 0-37m-486 1c-29 34-61 43-100 61-41 18-80 38-122 54-17 6-46 15-59 27-6 5 3 10 7 11l-2-6c5 0 11-3 15 0 2-3 2-5 2-8 5 1 11 8 8-2l10 7c-2-10 1-10 10-8l-2-7c7 1 10-5 18-3v-5c8 1 11 3 18 5l-4-6 7 1-3-7 8 4c0-3 0-3-3-4 11-2 12 1 21 5l-3-8h5l-3-7c9 0 29-13 31-3l-8-2 4 8c-4-1-12 12-13 5l-8 16c6 0 3 4-3 0 0 7-1 12-9 9-1 3-2 3-5 4 0 3 26 7 18 9 1 6-10 22-8 22-4 8-4 17 6 14-6 12 3 15 6 23-7-1-8 3-8 9 15-9 5-4 1 5-2 6 1 11-2 17-2 3-4 4-7 2-1 5 0 13-3 18s-9 6-11 14c5 0 13 3 8-6 14 2-18 38 2 42v-8c7 13 33 8 46 7 6 0 15 2 16-5l4 2-5-12 8 6c0-12 4-32-4-42 9-4 5-28 0-35 6-1 4-5 7-9 0 3 1 4 3 6 2-16 12-31 12-47l4 2c6-9 9 2 14 4 14 6 27 17 35 30l-7-1c2 5 7 8 8 14l-4-2c3 6-2 5-4 11 10-1 22-14 32-10 2-6 6-8 12-9l-5 9c5-1 7-5 11-7-1-4-2-6 1-9 1 5 2 8 7 9-1-4-3-7 1-8l-3-8c8 3 17-10 26-11 4-11 21-16 27-28-17 4-42 28-57 38-4 3-7 12-12 12-5 1-20-11-25-13 4 9 16 7 19 17-18-3-35-22-51-32-7-4-15-6-18-15 16 7 33 26 49 29-11-16-39-18-48-34-5-8 2-18 5-26 9-24 22-46 30-70-6 2-6 11-9 16-10 14-18 30-28 43-2 4-3 11-7 13-4 1-7-3-9-6 5 0 7-2 7-7l-4 4c2-6 7-22 14-22v-19l10 4c0-3-3-20 0-20 5-2 7 7 13 1 6-7 8-17 15-25-3-7 8-8 12-12 10-7 31-24 35-35h-2m20 0v2h-4v-2h4m482 0c2 8 8 23 14 28-3-9-6-22-14-28z"/>
    <path fill="#202125" d="M883 770c2 10 32 10 40 15l-3-7c5 2 7 4 12 4l-4-2c6-1 14 2 20 3-9-11-33-8-45-8 1-4-16-3-20-5zM866 772c12 11 31 17 46 23 2 1 15 7 16 3 0-3-13-7-15-8-14-7-32-18-47-18z"/>
    <path fill="#656567" d="M377 776c2 9 9 16 15 22 0-6-10-18-15-22m-23 3c0 7 4 18 10 22-1-7-6-16-10-22m445 1l2 5c0-2 0-3-2-5m111 3v2h-3v-2h3z"/>
    <path fill="#202125" d="M925 785c10 3 23 11 33 10-2-2-5-3-5-6-10 1-17-8-28-4z"/>
    <path fill="#656567" d="M802 786l5 12c1-4-2-9-5-12m-462 5l-3-4c3 1 3 1 3 4m30-4v2-2m-89 4l-4 2 4-2m646 0l-3 1 3-1m-651 4v3h-4v-3h4m97 0v4h-2v-4h2m21 4c2 9 13 23 22 27-2-8-14-23-22-27m182 0v3h3v-3h-3m223 0c1 12 3 21 2 33 3 0 3-1 5-3 4 8 1 17 5 25-3-2-5-5-9-6l1 12 5-2c-2 32 13 64 10 95h6c-3 7 0 17-5 23v-10c-3 6-3 15-4 22l4-2c4 11 6-6 5-10 8 3 12 6 21 7l-5-8-4 4c3-11-5-24 9-13 1-7 2-28-5-31l1 5c-9-5-1-25-5-35-12-33-18-76-37-106m9 0l7 16c1-6-3-12-7-16m-444 3c0 6 6 30 13 32-2-10-7-24-13-32m137 4l-5-3c3 0 4 0 5 3m396-3l3 6c-3-1-4-3-3-6m-517 5l-4-4c3 1 3 1 4 4m579-4c5 5 17 9 25 10l-2 4c9-1 14 11 22 8 2 4 28 27 33 28l-3-6c15 9 5 13-8 9-14-5-19-25-35-25l2-6c-5 2-13 2-14-4-7 4-23-11-20-18z"/>
    <path fill="#202125" d="M382 805c0 2 0 2 2 3l-2-3m621 0c3 9 8 3 0 0z"/>
    <path fill="#656567" d="M263 806c1 3 2 4 5 5-1-3-2-4-5-5"/>
    <path fill="#202125" d="M933 818l5 1v-5c-3 1-4 1-5 4z"/>
    <path fill="#656567" d="M254 815c2 5 6 1 0 0m512 0l-3 15c4-4 5-10 5-15h-2z"/>
    <path fill="#202125" d="M1009 815l6 1-6-1z"/>
    <path fill="#656567" d="M776 819l4-3c-3 0-3 0-4 3m41-3l4 8c0-4-2-6-4-8m-575 8l4-5c-3 1-3 2-4 5m822-3v3h-4v-3h4m-289 1c0 3 0 3 3 4l-3-4m-536 3l-3 9c3-2 4-5 5-9h-2m584 0l6 12c0-4-3-9-6-12m28 0l3 12-12-5c12 27 28 52 45 76 7 11 20 24 17 37 15-3 22 34 24 44-4-4-6-4-11-4 1-7-2-12-1-19-8 1-10-10-16-14-4-3-2 5-5 5-4 1-4-10-5-12 18 5 4-11-5-12l8 8c-11 3-14-10-17-18-9-18-19-47-33-62-1 8 11 24 14 32l36 69c6 11 8 28 22 28l-3-5c5 4 19 10 20 0l2 5h8c-11-28-36-60-54-85-9-12-21-25-25-40 3 1 5 1 7-1l-2 7 6-1c1 17 25 23 26 40 13 0 20 31 32 33l-2 6c5 3 29 37 27 41h11c-3-8-10-27-19-28 1-9-11-25-19-28 3-8-19-33-26-34 3-5-3-8-8-7 1-11-10-15-8-25-19-3-20-36-37-43m-435 2c2 3 4 6 7 7l-7-7m517 0v7c-3-3-3-4 0-7m-384 10c-28-3-6-15 0 0m-142-1l-4-7c4 1 8 3 4 7m664-7v4-4m-298 1v2h3v-2h-3m-417 1c1 4 3 5 7 6-1-4-3-5-7-6m439 0v4h3v-4h-3m-484 3c-11 3-3 18 0 0m66 1c1 4 2 11 6 12-1-5-2-9-6-12m46 0c2 6 8 10 12 15 0-5-7-13-12-15m339 0c-4 18-13 34-15 52-1 5-3 16 3 18 3-15 52-19 44-41 9 4 9 29 10 38 3-8 0-42-9-46-3-1-10 5-16 4v4c-5 1-4 7-9 9-1-8-15 10-17 11 0-14 12-36 9-49m-343 9l-9-3c2-7 8-2 9 3m-29-6v3-3m409 1l4 3c-1-3-1-4-4-3m-513 0c2 4 4 4 8 5-1-4-4-5-8-5m354 11c-4-1-2-7-2-11 6 2 3 7 2 11m-455-5c-2 0-3-1-3-3l3 3m647-3l9 18c1-6-4-14-9-18m118 4c-1 2-1 3-4 4 1-3 1-3 4-4m-769 4l-3-3c2 0 3 1 3 3m9-3v3h-4v-3h4m23 0v3h4v-3h-4m238 44c9-1 6 7 13 9-2 5-6 3-10 1l2-7c-2 1-5 2-7 0-2-3-2-9-5-13-4-6-27-21-22-28-2-2-4-6 1-5 7 2 32 37 28 43m-277-43l3 3c-2 3-4 6-8 7l5-10m147 0c2 9 10 3 0 0m62 0c4 24 24 44 26 68 4-13-16-59-26-68m385 1l-1 5h5l-4-5m-427 6c3-1 4-1 5-4-3 0-4 1-5 4m683-4v2h3v-2h-3m-529 3c4 4 8 6 13 7-4-4-8-6-13-7m-313 1c-1 3-2 3-5 4 1-3 2-4 5-4m257 0c2 5 5 9 9 12-2-5-4-9-9-12m326 0c1 4 2 5 6 6-2-3-3-5-6-6z"/>
    <path fill="#202125" d="M1053 896l-1-5c6 2 10 5 16 5-2-7-6-17-10-22 4-3 3-5-1-7-3 4-5-1-4-4-16-15-6 31 0 33z"/>
    <path fill="#656567" d="M396 858l3 9c1-4 0-7-3-9m6 0c0 2 1 3 3 3l-3-3m576 3c-1 4-2 6-6 7 1-4 2-6 6-7m-804 1c0 3-1 4-3 6-1-3 0-4 3-6m-21 3c1-1 3 1 1 2-1 1-3-1-1-2m50-1v3h4v-3h-4m559 5c4-1 6-2 7-5-3 1-5 2-7 5m268 45l1 5c-5-1-4-6-4-10l5 1c0-10 2-20 4-30 1-4-2-11 0-14 2-4 5 1 5 3 0 9-2 43-11 45z"/>
    <path fill="#202125" d="M814 865l1 7c3-3 2-5-1-7z"/>
    <path fill="#656567" d="M641 866v3h-3v-3h3m-241 2l2 6c1-3 0-4-2-6m-232 2c-5 8-8 1 0 0m38 1l-2 4c3-1 3-2 2-4m-33 1l1 4h-6l5-4m839 0c0 4 1 10-4 11l4-11m-69 2c1 4 2 6 6 7-1-4-2-6-6-7m-516 1l3 5-3-5m-24 1l8 20c1-6-4-17-8-20m-253 3c-2 4-3 5-7 6 2-4 3-5 7-6m8 1l-1 12h-3c0-5 0-9 4-12m36 4c3 0 3-1 5-3-3 0-4 0-5 3m247-3v3h-3v-3h3m485 2c0 12 11 3 0 0m53 6c6-3 0-8 0 0m-880-2v2l5-1-5-1m32 7c-3 0-5-1-6-4 3 0 5 1 6 4m14 9l1-12c8 1 4 11-1 12z"/>
    <path fill="#202125" d="M816 893l1 3 1-3h-2z"/>
    <path fill="#656567" d="M157 896c-1 3-1 4-4 5 1-3 1-4 4-5m9 0c-2 9-9 3 0 0m246 1l3 8c0-3-1-5-3-8m-281 6l-5-2c3-1 4-1 5 2m899 1l-3-4c3 1 3 1 3 4z"/>
    <path fill="#202125" d="M1040 901c-1 3-6 34 2 30 4-2 1-26 0-30h-2z"/>
    <path fill="#656567" d="M142 903l-2 9c-6-3-3-7 2-9m663 0c0 13 5 24 6 36 5-9-4-25-4-36h-2m-389 3l2 10c1-4 0-7-2-10m-259 7c-3-1-4-2-5-4 3 0 4 1 5 4z"/>
    <path fill="#202125" d="M184 909c4 11 9 1 0 0z"/>
    <path fill="#656567" d="M1057 925c-3 10 8 20 7 31-7-7-16-27-11-36l-6 2c1-23 11-6 18 2 3 3 9 2 10 6 2 8-16-1-18-5m-909-11c0 6-7 8-8 14-2 18 0 35-2 53h-3l2-9-6 2c2-6 6-9 0-15-1 7-8-17 2-20l-1 4c11-7-1-23 16-29m730 2c1 4 2 5 6 6-1-4-2-5-6-6z"/>
    <path fill="#202125" d="M182 922c3-1 3-2 4-5-3 1-4 2-4 5z"/>
    <path fill="#656567" d="M410 917l5 15c1-5-1-11-5-15m9 0c2 17 11 34 15 51 4-11-8-41-15-51m58 6c0 5 2 8 7 9-1-4-4-7-7-9m557 0c2 2 2 4 3 7-3-1-4-4-3-7m-150 1c1 4 3 6 8 6-2-4-4-5-8-6m-52 7c-3-1-3-2-4-5 3 1 4 2 4 5m-709-1c-1 4-2 5-6 6 1-3 3-4 6-6m293 3c4 28 16 57 25 84 3-16-13-49-18-65-3-6-2-15-7-19m408 6c-4 0-5-1-6-5 3 1 4 2 6 5z"/>
    <path fill="#202125" d="M200 936c2 9 11 11 17 15 16 10 34 30 52 32-2-9-10-10-17-14-16-11-33-27-52-33z"/>
    <path fill="#656567" d="M148 939c0 4 0 5-4 6l4-6m346 1c0 5 2 7 6 9l-3-9h-3m318 0v6h2v-6h-2m183 2c1 5 3 6 7 7-2-3-4-6-7-7m76 3l-3-3c2 0 3 1 3 3m-899-2l2 4c-2-1-3-2-2-4m650 0v3-3m251 5l-2 7c-5-2-2-6 2-7m-959 1c-2 5-5 2 0 0m58 1c2 4 3 12-3 13l3-13m666 0c0 2-1 3-3 3l3-3m65 1v2h4v-2h-4m109 1v4h2v-4h-2m-197 2l2 9v-9h-2m-327 1v3h3v-3h-3m344 0c-2 8-9 10-3 0h3m-580 4c0 3 0 3 3 4l-3-4m661 0v3h3v-3h-3m158 3l-3-3c2 0 3 1 3 3m-758-2c1 3 3 4 6 6-1-3-3-4-6-6m17 0c2 3 3 4 6 5-2-3-3-4-6-5m-109 6c3-1 3-1 4-4-3 1-3 1-4 4m708-4c0 3 0 3 3 4l-3-4m-100 9l-4-3c3 0 3 0 4 3m242-3v4h-4v-4h4m-636 1c4 23 13 51 23 72 2-6-3-12-5-18-4-14-7-45-18-54m406 0c0 3 1 5 4 6l-4-6m68 0v3h-2v-3h2m-741 1c-2 18-9 5 0 0m754 6v3h3v-3h-3z"/>
    <path fill="#202125" d="M818 985l4-6c-4 1-4 3-4 6m-3 5h5l-1-4c-3 1-3 2-4 4m250-4l-1 4h5l-4-4z"/>
    <path fill="#656567" d="M156 988c2 4 2 8 2 13-4-3-3-9-2-13m73 0c1 3 2 3 5 3l-5-3m606 0c1 2 1 2 3 2l-3-2z"/>
    <path fill="#202125" d="M937 988h3v2h-3z"/>
    <path fill="#656567" d="M580 994c2 5 2 7-1 12l11-5c-2 5-6 7-10 9 7 1 14-4 21-5-5-6-13-10-21-11m-440 1l-3 2c1-2 1-2 3-2m427 3v3h3v-3h-3m9 0v3h3v-3h-3m-419 6v4h-3v-4h3z"/>
    <path fill="#202125" d="M507 1077c8 4 40 4 48-1 10-6 7-20 24-15l-3-6c6 2 14 3 19 7 6 5 10 14 18 15 10 1 27-12 32-8 8-15 34 11 45 11-4-10-17-33-29-32 3-4 7-7 0-10-3 26-42 3-55 1-7-1-12 2-19 4 2-4 4-5 8-6-2-7 11-12 17-12l-2-5c6 1 8 5 11-2-9-1-12-13-22-13-38 1-66 50-92 72z"/>
    <path fill="#656567" d="M603 1006c5 5 10 12 18 12-4 6-5 3-11 2l2 5c-6-1-20 5-17 12-4 1-7 2-8 6 7-1 12-5 19-4 12 3 53 25 55-1 6 3 2 5 0 10 12-1 13 15 23 18-3-8-11-13-15-21-4-10-4-25-14-31s-25 2-36 1c-5 0-10-7-16-9m-33 8c3 1 6 0 9-1-3-1-6-1-9 1z"/>
    <path fill="#202125" d="M641 1013l4 3c-1-3-1-3-4-3z"/>
    <path fill="#656567" d="M809 1013l-1 8h2l-1-8z"/>
    <path fill="#202125" d="M648 1014c3 3 5 4 9 4-3-3-5-4-9-4z"/>
    <path fill="#656567" d="M523 1063c12-3 39-37 46-48-14 3-26 26-35 35-3 4-10 9-11 13z"/>
    <path fill="#202125" d="M624 1017v2c15 0 15-2 0-2z"/>
    <path fill="#656567" d="M166 1018v7c-3-3-2-4 0-7m276 0c1 5 1 9 3 13 1-5 0-9-3-13m199 1l1 6c-3-1-4-3-3-6h2m-7 6c-3-1-4-1-5-4 3 0 4 1 5 4z"/>
    <path fill="#202125" d="M808 1021c-1 8-16 34-12 40 4 7 8-11 6-15l7-1c-1-8 1-16 1-24h-2z"/>
    <path fill="#656567" d="M626 1024l-2 10c-5-2-8-3-14-3 3-6 10-6 16-7m181 2l1 1-1-1m-175 13l-4-1c2-5 0-6-2-10 7 1 6 5 6 11m7-7c-2-1-3-1-4-4 3 1 3 1 4 4m9-1l-4-3c3 0 3 0 4 3m157-3c-7 16-20 35-23 52h6l-3-2c5-3 4-11 10-12-2 4-7 12 0 14v-4l3 4 3-3c2 2 2 3 5 3l-1-7h5v-40c-2 4-2 8-1 12l-7 1c2 6-6 19-6 14 0-11 11-21 9-32m-197 2v4h-3v-4h3m-162 4c2 10 6 20 9 29 2-8-4-23-9-29m168 3l-4 1 4-1m23 1c2-1 4 1 2 2s-4-1-2-2m-15 0l1 4-1-4m-163 4c1 13 11 24 9 38 11-1-6-30-7-38h-2m125 5c5 6 8-1 0 0m18-1c0 4 0 6-4 6 3 9 18 24 18 6-15 7-1-11-14-12m-393 1c1 4 3 6 7 7-1-4-3-6-7-7m259 0c1 4 2 6 6 7-1-4-2-6-6-7m-376 1v5h2v-5h-2m518 9l12 1c-1-9-10-9-12-1m-18 0l4-3c-3 0-3 0-4 3m69-3v3h4v-3h-4m-504 5l-3-4c3 1 3 1 3 4m419-4l3 6c-16-7-15 8-24 15-4 3-9 0-12 4 18 0 17-10 36-12l-3-5c14 1 15-2 12 13 4-1 6-5 10-7v5c7-1 7 5 13 6 9 1 24 0 33-1 6 0 8-7 14-9-4 11 15 12 18 7l3 3c-2-10-31-23-33-11-7-5-21 9-32 8-12-1-24-19-38-22m-99 1c1 3 2 5 5 7-1-4-2-5-5-7m-179 1l3 4c0-3 0-3-3-4m158 7l5 16h2c-1-5-3-12-7-16m58 6c4 0 7-2 9-6-4 1-6 4-9 6m148-6v2h4v-2h-4z"/>
    <path fill="#202125" d="M785 1077c2 2 4 2 7 3 0-5 1-9 3-14-6 2-6 8-10 11z"/>
    <path fill="#656567" d="M92 1067v3h2v-3h-2m494 1l1 1-1-1m98-1c1 5 4 9 6 13 1-5-3-10-6-13zM347 1075l6-4c-4-1-5 0-6 4m164-4l-10 8c-1-3-1-3-4-3 2 8 36 4 44 4-10-5-23-1-34-2l6-6-2-1m52 0v4h3v-4h-3z"/>
    <path fill="#202125" d="M805 1073c2 11 8 1 0 0m-6 7c2 0 3-1 3-3l-3 3z"/>
    <path fill="#656567" d="M593 1079l1 1-1-1z"/>
  </g>
</svg>
