<?xml version="1.0" encoding="UTF-8" standalone="no"?>
<!DOCTYPE svg PUBLIC "-//W3C//DTD SVG 1.1//EN" "http://www.w3.org/Graphics/SVG/1.1/DTD/svg11.dtd">
<svg width="100%" height="100%" viewBox="0 0 941 50" version="1.1" xmlns="http://www.w3.org/2000/svg" xmlns:xlink="http://www.w3.org/1999/xlink" xml:space="preserve" xmlns:serif="http://www.serif.com/" style="fill-rule:evenodd;clip-rule:evenodd;stroke-linejoin:round;stroke-miterlimit:2;">
    <g transform="matrix(1,0,0,1,0,-230)">
        <g id="Plan-de-travail2" serif:id="Plan de travail2" transform="matrix(1.57358,0,0,0.581395,0,96.2791)">
            <rect x="0" y="230" width="598" height="86" style="fill:none;"/>
            <g transform="matrix(0.634514,-0.0477423,0.035279,0.858674,-115.498,94.9672)">
                <path d="M191,213.128C191,213.128 337.945,158.83 430.99,213C542.829,278.112 681.235,212 681.235,212C681.235,212 574.259,317.376 423,247.251C333.393,205.709 191,213.128 191,213.128Z" style="fill:rgb(230,230,230);"/>
            </g>
            <g transform="matrix(-0.634514,-0.0477423,-0.035279,0.858674,713.498,94.9672)">
                <path d="M191,213.128C191,213.128 337.945,158.83 430.99,213C542.829,278.112 681.235,212 681.235,212C681.235,212 574.259,317.376 423,247.251C333.393,205.709 191,213.128 191,213.128Z" style="fill:rgb(230,230,230);"/>
            </g>
            <g transform="matrix(0.634514,-0.0477423,0.012031,0.292827,-113.472,221.729)">
                <path d="M211.08,186.008C211.08,186.008 347.068,99.696 430.879,218.856C569.882,416.484 681.068,201.167 681.068,201.167C681.068,201.167 556.65,445.048 422.889,253.107C343.476,139.153 211.08,186.008 211.08,186.008Z" style="fill:rgb(251,6,137);"/>
            </g>
            <g transform="matrix(-0.634514,-0.0477423,-0.012031,0.292827,711.472,221.729)">
                <path d="M211.08,186.008C211.08,186.008 347.068,99.696 430.879,218.856C569.882,416.484 681.068,201.167 681.068,201.167C681.068,201.167 556.65,445.048 422.889,253.107C343.476,139.153 211.08,186.008 211.08,186.008Z" style="fill:rgb(251,6,137);"/>
            </g>
        </g>
    </g>
</svg>
