<svg width="100%" height="100%" viewBox="0 0 598 199" version="1.1" xmlns="http://www.w3.org/2000/svg" xmlns:xlink="http://www.w3.org/1999/xlink" xml:space="preserve" xmlns:serif="http://www.serif.com/" style="fill-rule:evenodd;clip-rule:evenodd;stroke-linejoin:round;stroke-miterlimit:2;">
    <rect id="Plan-de-travail1" serif:id="Plan de travail1" x="0" y="0" width="598" height="199" style="fill:none;"/>
    <g id="Plan-de-travail11" serif:id="Plan de travail1" transform="matrix(1,0,0,1,-17,0)">
        <g transform="matrix(1,0,0,1,-136.127,-86.0034)">
            <path d="M191,213.128C191,213.128 337.945,158.83 430.99,213C542.829,278.112 681.235,212 681.235,212C681.235,212 574.259,317.376 423,247.251C333.393,205.709 191,213.128 191,213.128Z" style="fill:rgb(230,230,230);"/>
        </g>
        <g transform="matrix(1,0,0,1,12,117)">
            <text x="0px" y="0px" style="font-family:'Didot-Bold', 'Didot';font-weight:700;font-size:136.813px;fill:rgb(229,0,93);">Oxymore</text>
        </g>
        <g transform="matrix(1.33868,0,0,1.33868,125.092,46.3567)">
            <text x="0px" y="0px" style="font-family:'Didot-Bold', 'Didot';font-weight:700;font-size:30px;">un silence assourdissant</text>
        </g>
    </g>
</svg>
