<?xml version="1.0" encoding="UTF-8" standalone="no"?><!DOCTYPE svg PUBLIC "-//W3C//DTD SVG 1.1//EN" "http://www.w3.org/Graphics/SVG/1.1/DTD/svg11.dtd"><svg width="19px" height="16px" version="1.1" xmlns="http://www.w3.org/2000/svg" xmlns:xlink="http://www.w3.org/1999/xlink" xml:space="preserve" xmlns:serif="http://www.serif.com/" style="fill-rule:evenodd;clip-rule:evenodd;stroke-linejoin:round;stroke-miterlimit:2;"><g transform="matrix(0.027586,0,0,0.027586,0.779137,0.685058)"><path d="M135.72,44.03c66.496,49.921 138.02,151.14 164.28,205.46c26.262,-54.316 97.782,-155.54 164.28,-205.46c47.98,-36.021 125.72,-63.892 125.72,24.795c0,17.712 -10.155,148.79 -16.111,170.07c-20.703,73.984 -96.144,92.854 -163.25,81.433c117.3,19.964 147.14,86.092 82.697,152.22c-122.39,125.59 -175.91,-31.511 -189.63,-71.766c-2.514,-7.38 -3.69,-10.832 -3.708,-7.896c-0.017,-2.936 -1.193,0.516 -3.707,7.896c-13.714,40.255 -67.233,197.36 -189.63,71.766c-64.444,-66.128 -34.605,-132.26 82.697,-152.22c-67.108,11.421 -142.55,-7.449 -163.25,-81.433c-5.957,-21.282 -16.111,-152.36 -16.111,-170.07c-0,-88.687 77.742,-60.816 125.72,-24.795l0.003,0Z" style="fill-rule:nonzero;"/></g></svg>